<svg width="73" height="72" viewBox="0 0 73 72" fill="none" xmlns="http://www.w3.org/2000/svg">
<g clip-path="url(#clip0_2_2029)">
<circle cx="36.4999" cy="38.0668" r="33.933" fill="#EEEEEE"/>
<mask id="mask0_2_2029" style="mask-type:luminance" maskUnits="userSpaceOnUse" x="2" y="4" width="69" height="68">
<circle cx="36.4999" cy="38.0668" r="33.933" fill="white"/>
</mask>
<g mask="url(#mask0_2_2029)">
<path fill-rule="evenodd" clip-rule="evenodd" d="M18.6873 22.1221H3.61746C2.57118 22.1221 1.74927 22.951 1.74927 24.0062V61.9388C1.74927 62.9937 2.57118 63.8229 3.61746 63.8229H18.6873C19.7336 63.8229 20.5555 62.9937 20.5555 61.9388V24.0062C20.5555 22.951 19.7335 22.1221 18.6873 22.1221Z" fill="#FFA300"/>
</g>
<ellipse cx="51.0238" cy="2.04269" rx="2.03453" ry="2.04269" fill="#FCBF29"/>
<path fill-rule="evenodd" clip-rule="evenodd" d="M25.7956 18.7928C25.0863 18.7928 24.4374 18.3891 24.1213 17.7494L21.9058 13.2773L17.4713 11.0431C16.837 10.7242 16.4368 10.0698 16.4368 9.35449C16.4368 8.63919 16.837 7.98476 17.4713 7.66592L21.9058 5.43168L24.1213 0.959532C24.7537 -0.319844 26.8338 -0.319844 27.47 0.959532L29.6873 5.43168L34.1199 7.66592C34.7542 7.98665 35.1545 8.63919 35.1545 9.35449C35.1545 10.0698 34.7542 10.7223 34.1199 11.0431L29.6873 13.2773L27.47 17.7494C27.1519 18.3891 26.5049 18.7928 25.7956 18.7928Z" fill="#FEDB41"/>
<path fill-rule="evenodd" clip-rule="evenodd" d="M63.3666 14.4349H61.4677V12.5284C61.4677 11.4747 60.6183 10.6219 59.5688 10.6219C58.5192 10.6219 57.6699 11.4747 57.6699 12.5284V14.4349H55.771C54.7214 14.4349 53.8721 15.2877 53.8721 16.3414C53.8721 17.3952 54.7214 18.248 55.771 18.248H57.6699V20.1545C57.6699 21.2082 58.5192 22.061 59.5688 22.061C60.6183 22.061 61.4677 21.2082 61.4677 20.1545V18.248H63.3666C64.4161 18.248 65.2655 17.3952 65.2655 16.3414C65.2655 15.2877 64.4162 14.4349 63.3666 14.4349Z" fill="#FCBF29"/>
<path fill-rule="evenodd" clip-rule="evenodd" d="M55.4997 63.732H37.6715C34.2124 63.732 30.9394 62.4044 28.4847 59.9336L24.3191 55.8033C23.947 55.4716 23.761 54.9921 23.761 54.5128V32.1408C23.761 31.1082 24.5792 30.2969 25.6207 30.2969H29.3402L35.2169 24.4333C38.6387 21.0777 40.4984 16.6154 40.4984 11.8585C40.4984 9.83019 42.1721 8.17072 44.2178 8.17072C46.2635 8.17072 47.9373 9.83019 47.9373 11.8585V14.6611C47.9373 19.1232 47.1191 23.5484 45.5568 27.826L44.627 30.2969H54.719L55.0167 42.8843L55.4997 63.732Z" fill="#FEC478"/>
<path fill-rule="evenodd" clip-rule="evenodd" d="M60.2866 46.9825C62.5923 46.9825 64.4516 48.9531 64.4516 51.2439C64.4516 53.5717 62.5922 55.4192 60.2866 55.4192H56.5678C58.8735 55.4192 60.7328 57.2666 60.7328 59.5944C60.7328 61.8853 58.8734 63.7326 56.5678 63.7326H49.8988C47.5932 63.7326 45.7339 61.8851 45.7339 59.5944C45.7339 57.2666 47.5933 55.4192 49.8988 55.4192C47.5932 55.4192 45.7339 53.5717 45.7339 51.2439C45.7339 48.9531 47.5933 46.9825 49.8988 46.9825C47.5932 46.9825 45.7339 45.135 45.7339 42.8443C45.7339 40.5165 47.5933 38.5459 49.8988 38.5459C47.5932 38.5459 45.7339 36.6984 45.7339 34.3706C45.7339 32.0798 47.5933 30.2324 49.8988 30.2324H60.2866C62.5923 30.2324 64.4516 32.0799 64.4516 34.3706C64.4516 36.6984 62.5922 38.5459 60.2866 38.5459C62.5923 38.5459 64.4516 40.5164 64.4516 42.8443C64.4516 45.135 62.5922 46.9825 60.2866 46.9825Z" fill="#FEDBAB"/>
<path fill-rule="evenodd" clip-rule="evenodd" d="M25.1173 26.9637H17.5217C16.4582 26.9637 15.6228 27.7765 15.6228 28.8111V58.6164C15.6228 59.6508 16.4582 60.4639 17.5217 60.4639H25.1173C26.1808 60.4639 27.0162 59.6508 27.0162 58.6164V28.811C27.0162 27.7763 26.1806 26.9637 25.1173 26.9637Z" fill="#FF8435"/>
<ellipse cx="11.1468" cy="54.3357" rx="2.03453" ry="2.04269" fill="#FFD500"/>
</g>
<defs>
<clipPath id="clip0_2_2029">
<rect width="72" height="72" fill="white" transform="translate(0.5)"/>
</clipPath>
</defs>
</svg>
